<?xml version="1.0" encoding="UTF-8" standalone="no"?>
<svg width="692px" height="95px" viewBox="0 0 692 95" version="1.1" xmlns="http://www.w3.org/2000/svg" xmlns:xlink="http://www.w3.org/1999/xlink" xmlns:sketch="http://www.bohemiancoding.com/sketch/ns">
    <!-- Generator: Sketch 3.3.2 (12043) - http://www.bohemiancoding.com/sketch -->
    <title>blackbox</title>
    <desc>Created with Sketch.</desc>
    <defs></defs>
    <g id="Page-2" stroke="none" stroke-width="1" fill="none" fill-rule="evenodd" sketch:type="MSPage">
        <g id="Rectangle-2-+-Blackbox-+-Path-1" sketch:type="MSLayerGroup" transform="translate(264.000000, 4.000000)">
            <rect id="Rectangle-2" stroke="#292929" stroke-width="3" sketch:type="MSShapeGroup" x="0" y="0" width="156" height="70"></rect>
            <text id="Blackbox" sketch:type="MSTextLayer" font-family="Helvetica" font-size="24" font-style="italic" font-weight="bold" fill="#000000">
                <tspan x="24.5" y="41.4746094">Blackbox</tspan>
            </text>
        </g>
        <path d="M164.5,45.5 L263.5,45.5" id="Line" stroke="#000000" stroke-width="3" stroke-linecap="square" sketch:type="MSShapeGroup"></path>
        <path id="Line-decoration-1" d="M263.5,45.5 L252.7,42.5 L252.7,48.5 L263.5,45.5 Z" stroke="#000000" stroke-width="3" stroke-linecap="square"></path>
        <path d="M420.5,45.5 L519.5,45.5" id="Line-Copy" stroke="#000000" stroke-width="3" stroke-linecap="square" sketch:type="MSShapeGroup"></path>
        <path id="Line-Copy-decoration-1" d="M519.5,45.5 L508.7,42.5 L508.7,48.5 L519.5,45.5 Z" stroke="#000000" stroke-width="3" stroke-linecap="square"></path>
        <g id="Rectangle-1-Copy-3-+-Data-Copy-Copy" sketch:type="MSLayerGroup" transform="translate(525.000000, 6.181212)">
            <path d="M0.619980126,0.319677253 L155.615012,0.319677253 L155.615012,67.0605198 C155.615012,67.0605198 147.191902,57.1098189 112.206748,57.1098189 C77.2215945,57.1098189 62.375813,91.0211451 0.619980126,67.0605198 L0.619980126,0.319677253 Z" id="Rectangle-1-Copy-3" stroke="#979797" fill="#D8D8D8" sketch:type="MSShapeGroup"></path>
            <text id="Data" sketch:type="MSTextLayer" font-family="Helvetica" font-size="24" font-style="italic" font-weight="bold" fill="#000000">
                <tspan x="46.5180921" y="40.839364">Data</tspan>
            </text>
        </g>
        <g id="Rectangle-1-Copy-3-+-Data-Copy-Copy-Copy" sketch:type="MSLayerGroup" transform="translate(8.234992, 7.500000)">
            <path d="M0.619980126,0.319677253 L155.615012,0.319677253 L155.615012,67.0605198 C155.615012,67.0605198 147.191902,57.1098189 112.206748,57.1098189 C77.2215945,57.1098189 62.375813,91.0211451 0.619980126,67.0605198 L0.619980126,0.319677253 Z" id="Rectangle-1-Copy-3" stroke="#979797" fill="#D8D8D8" sketch:type="MSShapeGroup"></path>
            <text id="Data" sketch:type="MSTextLayer" font-family="Helvetica" font-size="24" font-style="italic" font-weight="bold" fill="#000000">
                <tspan x="46.5180921" y="40.839364">Data</tspan>
            </text>
        </g>
    </g>
</svg>