<?xml version="1.0" encoding="UTF-8" standalone="no"?>
<svg width="719px" height="316px" viewBox="0 0 719 316" version="1.1" xmlns="http://www.w3.org/2000/svg" xmlns:xlink="http://www.w3.org/1999/xlink" xmlns:sketch="http://www.bohemiancoding.com/sketch/ns">
    <!-- Generator: Sketch 3.3.2 (12043) - http://www.bohemiancoding.com/sketch -->
    <title>compilation</title>
    <desc>Created with Sketch.</desc>
    <defs></defs>
    <g id="Page-3" stroke="none" stroke-width="1" fill="none" fill-rule="evenodd" sketch:type="MSPage">
        <g id="Rectangle-1-Copy-3-+-Data" sketch:type="MSLayerGroup" transform="translate(20.130911, 203.673760)">
            <path d="M0.619980126,0.319677253 L155.615012,0.319677253 L155.615012,67.0605198 C155.615012,67.0605198 147.191902,57.1098189 112.206748,57.1098189 C77.2215945,57.1098189 62.375813,91.0211451 0.619980126,67.0605198 L0.619980126,0.319677253 Z" id="Rectangle-1-Copy-3" stroke="#979797" fill="#D8D8D8" sketch:type="MSShapeGroup"></path>
            <text id="Data" sketch:type="MSTextLayer" font-family="Helvetica" font-size="16.1194833" font-style="italic" font-weight="bold" fill="#000000">
                <tspan x="59.5180921" y="34.839364">Data</tspan>
            </text>
        </g>
        <g id="Rectangle-1-Copy-3-+-Data-Copy" sketch:type="MSLayerGroup" transform="translate(552.634097, 205.953879)">
            <path d="M0.619980126,0.0252305339 L155.615012,0.0252305339 L155.615012,66.7660731 C155.615012,66.7660731 147.191902,56.8153721 112.206748,56.8153721 C77.2215945,56.8153721 62.375813,90.7266983 0.619980126,66.7660731 L0.619980126,0.0252305339 Z" id="Rectangle-1-Copy-3" stroke="#979797" fill="#D8D8D8" sketch:type="MSShapeGroup"></path>
            <text id="Data" sketch:type="MSTextLayer" font-family="Helvetica" font-size="16.1194833" font-style="italic" font-weight="bold" fill="#000000">
                <tspan x="57.5180921" y="32.839364">Data</tspan>
            </text>
        </g>
        <rect id="Rectangle-1-Copy-4" stroke="#000000" stroke-width="3" sketch:type="MSShapeGroup" x="254.283597" y="142.955866" width="209.553283" height="153.755071"></rect>
        <text id="Render" sketch:type="MSTextLayer" font-family="Helvetica" font-size="19" font-style="italic" font-weight="bold" fill="#000000">
            <tspan x="325" y="272">Render</tspan>
        </text>
        <g id="Rectangle-1-Copy-+-Template" sketch:type="MSLayerGroup" transform="translate(28.610831, 14.000000)">
            <path d="M0.309990063,0.950560437 L155.006656,0.950560437 L155.006656,67.691403 C155.006656,67.691403 146.599761,57.7407021 111.681954,57.7407021 C76.7641463,57.7407021 61.946943,91.6520282 0.309990063,67.691403 L0.309990063,0.950560437 Z" id="Rectangle-1-Copy" stroke="#040404" stroke-width="2" fill="#D8D8D8" sketch:type="MSShapeGroup"></path>
            <text id="Template" sketch:type="MSTextLayer" font-family="Helvetica" font-size="16.1194833" font-style="italic" font-weight="bold" fill="#000000">
                <tspan x="39.9887181" y="36.6993044">Template</tspan>
            </text>
        </g>
        <g id="Rectangle-1-+-Compile" sketch:type="MSLayerGroup" transform="translate(284.042643, 16.479921)">
            <rect id="Rectangle-1" stroke="#979797" stroke-width="2" sketch:type="MSShapeGroup" x="0.619980126" y="0.619980126" width="154.995032" height="65.7178934"></rect>
            <text id="Compile" sketch:type="MSTextLayer" font-family="Helvetica" font-size="16.1194833" font-style="italic" font-weight="bold" fill="#000000">
                <tspan x="44.6385691" y="38.5592448">Compile</tspan>
            </text>
        </g>
        <g id="Rectangle-1-Copy-2-+-Function" sketch:type="MSLayerGroup" transform="translate(287.502484, 171.474952)">
            <path d="M0,0.619980126 L154.995032,0.619980126 L154.995032,58.862479 C154.995032,58.862479 146.571922,50.1788354 111.586768,50.1788354 C76.6016144,50.1788354 61.7558329,79.7721145 0,58.862479 L0,0.619980126 Z" id="Rectangle-1-Copy-2" stroke="#979797" fill="#D8D8D8" sketch:type="MSShapeGroup"></path>
            <text id="Function" sketch:type="MSTextLayer" font-family="Helvetica" font-size="16.1194833" font-style="italic" font-weight="bold" fill="#000000">
                <tspan x="53.3986088" y="33.5994038">Code</tspan>
            </text>
        </g>
        <path d="M182.985883,48.5 L284.662623,48.5" id="Line" stroke="#0A0A0A" stroke-width="3" stroke-linecap="square" sketch:type="MSShapeGroup"></path>
        <path id="Line-decoration-1" d="M284.662623,48.5 L273.862623,45.5 L273.862623,51.5 L284.662623,48.5 Z" stroke="#0A0A0A" stroke-width="3" stroke-linecap="square"></path>
        <path d="M176.985883,243.5 L252.623458,243.5" id="Line" stroke="#000000" stroke-width="3" stroke-linecap="square" sketch:type="MSShapeGroup"></path>
        <path id="Line-decoration-1" d="M252.623458,243.5 L241.823458,240.5 L241.823458,246.5 L252.623458,243.5 Z" stroke="#000000" stroke-width="3" stroke-linecap="square"></path>
        <path d="M464.45686,243.5 L550.014117,243.5" id="Line" stroke="#000000" stroke-width="3" stroke-linecap="square" sketch:type="MSShapeGroup"></path>
        <path id="Line-decoration-1" d="M550.014117,243.5 L539.214117,240.5 L539.214117,246.5 L550.014117,243.5 Z" stroke="#000000" stroke-width="3" stroke-linecap="square"></path>
        <path d="M363.5,86.2373719 L363.5,174.499999" id="Line" stroke="#0C0B0B" stroke-width="3" stroke-linecap="square" sketch:type="MSShapeGroup"></path>
        <path id="Line-decoration-1" d="M363.5,174.499999 L366.5,163.699999 L360.5,163.699999 L363.5,174.499999 Z" stroke="#0C0B0B" stroke-width="3" stroke-linecap="square"></path>
    </g>
</svg>