<?xml version="1.0" encoding="UTF-8" standalone="no"?>
<svg width="791px" height="435px" viewBox="0 0 791 435" version="1.1" xmlns="http://www.w3.org/2000/svg" xmlns:xlink="http://www.w3.org/1999/xlink" xmlns:sketch="http://www.bohemiancoding.com/sketch/ns">
    <!-- Generator: Sketch 3.3.2 (12043) - http://www.bohemiancoding.com/sketch -->
    <title>dualism-shared</title>
    <desc>Created with Sketch.</desc>
    <defs></defs>
    <g id="Page-6-Copy" stroke="none" stroke-width="1" fill="none" fill-rule="evenodd" sketch:type="MSPage">
        <rect id="Path-Copy" stroke="#070606" stroke-width="4" fill="#FFFFFF" sketch:type="MSShapeGroup" x="188" y="127" width="392" height="171"></rect>
        <path d="M2,2 L156,2 L156,76.4450203 C156,76.4450203 147.630965,65.3456678 112.870408,65.3456678 C78.1098501,65.3456678 63.359375,103.171522 2,76.4450203 L2,2 Z" id="Rectangle-1-Copy-6" stroke="#0F0E0E" stroke-width="4" fill="#FFFFFF" sketch:type="MSShapeGroup"></path>
        <text id="Env" sketch:type="MSTextLayer" font-family="Helvetica" font-size="20" font-style="italic" font-weight="bold" fill="#000000">
            <tspan x="45" y="39">Env</tspan>
        </text>
        <path d="M2,348 L156,348 L156,422.44502 C156,422.44502 147.630965,411.345668 112.870408,411.345668 C78.1098501,411.345668 63.359375,449.171522 2,422.44502 L2,348 Z" id="Rectangle-1-Copy-7" stroke="#0F0E0E" stroke-width="4" fill="#FFFFFF" sketch:type="MSShapeGroup"></path>
        <text id="Type-something-Copy" sketch:type="MSTextLayer" font-family="Helvetica" font-size="20" font-style="italic" font-weight="bold" fill="#000000">
            <tspan x="40" y="368"></tspan>
            <tspan x="40" y="392">Data</tspan>
        </text>
        <path d="M618,2 L772,2 L772,76.4450203 C772,76.4450203 763.630965,65.3456678 728.870408,65.3456678 C694.10985,65.3456678 679.359375,103.171522 618,76.4450203 L618,2 Z" id="Rectangle-1-Copy-8" stroke="#0F0E0E" stroke-width="4" fill="#FFFFFF" sketch:type="MSShapeGroup"></path>
        <text id="HTML" sketch:type="MSTextLayer" font-family="Helvetica" font-size="20" font-style="italic" font-weight="bold" fill="#000000">
            <tspan x="665" y="39">HTML</tspan>
        </text>
        <path d="M635,337 L789,337 L789,411.44502 C789,411.44502 780.630965,400.345668 745.870408,400.345668 C711.10985,400.345668 696.359375,438.171522 635,411.44502 L635,337 Z" id="Rectangle-1-Copy-9" stroke="#0F0E0E" stroke-width="4" fill="#FFFFFF" sketch:type="MSShapeGroup"></path>
        <text id="DOM" sketch:type="MSTextLayer" font-family="Helvetica" font-size="20" font-style="italic" font-weight="bold" fill="#000000">
            <tspan x="684" y="384">DOM</tspan>
        </text>
        <path d="M580.97168,208.676758 C636.026726,196.561368 664.351543,142.080297 679.804688,86.3554688" id="Path-1" stroke="#0F0E0E" stroke-width="4" sketch:type="MSShapeGroup"></path>
        <path d="M580,208.70739 C588.845167,207.996179 608.609375,219.905332 608.609375,219.905332 C608.609375,219.905332 702.555688,277.485355 709.960938,334.183717 C710.070099,335.019511 708.648438,333.4519 707.992188,333.085992" id="Path-2" stroke="#0D0C0C" stroke-width="4" sketch:type="MSShapeGroup"></path>
        <path d="M99.5570499,66.3554688 C97.5174043,104.686613 112.529617,147.952009 142.294603,171.006421 C147.882668,175.334646 186.459609,198.532259 187.623051,202.317383" id="Path-3" stroke="#0B0B0B" stroke-width="4" sketch:type="MSShapeGroup"></path>
        <path d="M90.90625,346.945312 C108.694281,288.034715 135.640056,242.30413 187.389648,208.651367" id="Path-4" stroke="#0C0B0B" stroke-width="4" sketch:type="MSShapeGroup"></path>
        <path d="M667.972656,97.7734375 C686.986886,83.0860511 683.903124,72.3053067 684.117188,104.367188" id="Path-5" stroke="#0B0A0A" stroke-width="4" sketch:type="MSShapeGroup"></path>
        <path d="M708.859375,333.972656 C715.039297,312.384128 715.638445,310.816172 709.941406,329.054688 L708.859375,333.972656 Z" id="Path-6" stroke="#0A0A0A" stroke-width="4" sketch:type="MSShapeGroup"></path>
        <path d="M707.933594,334.425781 C704.239583,331.079427 701.814834,324.844691 696.851562,324.386719 L693.113281,322.457031 C692.563962,322.406344 693.347656,323.535156 693.464844,324.074219" id="Path-7" stroke="#040404" stroke-width="4" sketch:type="MSShapeGroup"></path>
        <path d="M188,201.726562 L172.986341,177.726562" id="Path-8" stroke="#090909" stroke-width="4" sketch:type="MSShapeGroup"></path>
        <path d="M186.470716,202.273438 C176.202352,198.290047 172.482693,195.381824 161.521497,198.867188" id="Path-9" stroke="#0C0B0B" stroke-width="5" sketch:type="MSShapeGroup"></path>
        <path d="M157.723633,217.681641 C166.040039,215.011068 178.782227,208.546549 187.098633,205.875977" id="Path-10" stroke="#030303" stroke-width="4" sketch:type="MSShapeGroup"></path>
        <path d="M171.615449,237.558594 C176.215459,230.104167 183.227139,214.752279 187.827148,207.297852" id="Path-11" stroke="#111111" stroke-width="4" sketch:type="MSShapeGroup"></path>
        <g id="Group" sketch:type="MSLayerGroup" transform="translate(187.000000, 179.000000)">
            <path d="M143,4 L251,4 L251,56.2887643 C251,56.2887643 245.130807,48.4927905 220.753273,48.4927905 C196.375739,48.4927905 186.03125,75.0609499 143,56.2887643 L143,4 Z" id="Path" stroke="#0F0E0E" stroke-width="3" opacity="0.3" fill="#FFFFFF" sketch:type="MSShapeGroup"></path>
            <path d="M115.5,31.5 L144.5,31.5" id="Line" stroke="#111010" stroke-width="2" stroke-linecap="square" sketch:type="MSShapeGroup"></path>
            <path id="Line-decoration-1" d="M144.5,31.5 L133.7,28.5 L133.7,34.5 L144.5,31.5 Z" stroke="#111010" stroke-width="2" stroke-linecap="square"></path>
            <path d="M0.5,29 L29.5,29" id="Line-Copy" stroke="#111010" stroke-width="2" stroke-linecap="square" sketch:type="MSShapeGroup"></path>
            <path id="Line-Copy-decoration-1" d="M29.5,29 L18.7,26 L18.7,32 L29.5,29 Z" stroke="#111010" stroke-width="2" stroke-linecap="square"></path>
            <path d="M251.5,31.5 L283.5,31.5" id="Line" stroke="#121111" stroke-width="2" stroke-linecap="square" sketch:type="MSShapeGroup"></path>
            <path id="Line-decoration-1" d="M283.5,31.5 L272.7,28.5 L272.7,34.5 L283.5,31.5 Z" stroke="#121111" stroke-width="2" stroke-linecap="square"></path>
            <path d="M364.5,29 L396.5,29" id="Line-Copy-2" stroke="#121111" stroke-width="2" stroke-linecap="square" sketch:type="MSShapeGroup"></path>
            <path id="Line-Copy-2-decoration-1" d="M396.5,29 L385.7,26 L385.7,32 L396.5,29 Z" stroke="#121111" stroke-width="2" stroke-linecap="square"></path>
            <rect id="Rectangle-7" stroke="#171616" stroke-width="3" fill="#FFFFFF" sketch:type="MSShapeGroup" x="30" y="0.5" width="85" height="59"></rect>
            <text id="F1" sketch:type="MSTextLayer" font-family="Helvetica" font-size="24" font-style="italic" font-weight="bold" fill="#000000">
                <tspan x="57" y="38.5">F1</tspan>
            </text>
            <rect id="Rectangle-7-Copy" stroke="#0E0E0E" stroke-width="3" fill="#FFFFFF" sketch:type="MSShapeGroup" x="279" y="0.5" width="85" height="59"></rect>
            <text id="F2" sketch:type="MSTextLayer" font-family="Helvetica" font-size="24" font-style="italic" font-weight="bold" fill="#000000">
                <tspan x="307" y="38.5">F2</tspan>
            </text>
            <text id="View" sketch:type="MSTextLayer" font-family="Helvetica" font-size="22" font-style="italic" font-weight="bold" fill="#000000">
                <tspan x="172" y="37.5">View</tspan>
            </text>
        </g>
    </g>
</svg>